<svg id="Layer_1" enable-background="new 0 0 512 512" height="512" viewBox="0 0 512 512" width="512" xmlns="http://www.w3.org/2000/svg"><path d="m431.667 77.104v-62.104c0-8.284-6.716-15-15-15h-321.334c-8.284 0-15 6.716-15 15v62.105c-16.429 15.459-14.794 35.498-14.771 36.108l14.781 384.363c.311 8.055 6.93 14.424 14.99 14.424h112.467c7.826 0 14.338-6.018 14.953-13.819l22.205-281.242c.45-5.723 5.301-10.205 11.042-10.205s10.592 4.482 11.043 10.208l22.204 281.239c.615 7.801 7.127 13.819 14.953 13.819h112.467c8.06 0 14.679-6.369 14.989-14.424l14.781-384.361c.024-.604 1.661-20.649-14.77-36.111zm-321.334-47.104h291.334v34.267h-291.334zm303.639 146.733h-13.372c-9.447 0-17.133-7.687-17.133-17.134 0-8.284-6.716-15-15-15s-15 6.716-15 15c0 25.989 21.144 47.134 47.133 47.134h12.219l-10.587 275.267h-84.17l-21.112-267.417c-1.672-21.224-19.659-37.85-40.95-37.85s-39.278 16.626-40.949 37.847l-21.114 267.42h-84.17l-10.585-275.267h12.218c25.989 0 47.133-21.145 47.133-47.134 0-8.284-6.716-15-15-15s-15 6.716-15 15c0 9.447-7.686 17.134-17.133 17.134h-13.372l-2.487-64.675c-.179-4.633 1.561-9.202 4.773-12.539 3.215-3.338 7.715-5.253 12.347-5.253h286.678c4.632 0 9.132 1.915 12.347 5.253 3.213 3.337 4.952 7.906 4.773 12.541z"/></svg>